<?xml version="1.0" encoding="utf-8"?>
<!-- Generator: Adobe Illustrator 27.1.1, SVG Export Plug-In . SVG Version: 6.00 Build 0)  -->
<svg version="1.1" id="Calque_1" xmlns="http://www.w3.org/2000/svg" xmlns:xlink="http://www.w3.org/1999/xlink" x="0px" y="0px"
	 viewBox="0 0 313 161" style="enable-background:new 0 0 313 161;" xml:space="preserve">
<style type="text/css">
	.st0{fill:#FFFFFF;}
</style>
<path class="st0" d="M80.8,47.3c0,4.9-0.9,9.4-2.6,13.5c-1.7,4.1-4,7.7-7,10.7c-3,3-6.6,5.3-10.7,7C56.4,80.2,52,81,47.1,81H7.7
	c-1,0-2-0.2-2.9-0.6c-0.9-0.4-1.7-0.9-2.4-1.5c-0.6-0.7-1.1-1.5-1.5-2.4c-0.4-0.9-0.6-1.9-0.6-2.9V7.8c0-1,0.2-2,0.6-2.9
	c0.4-0.9,0.9-1.7,1.5-2.4C3.1,1.9,3.9,1.4,4.8,1c0.9-0.4,1.9-0.6,2.9-0.6h39.4c4.8,0,9.3,0.8,13.4,2.5s7.7,4,10.7,7
	c3,3,5.3,6.5,7,10.7c1.7,4.1,2.6,8.6,2.6,13.5V47.3z M66.2,34.2c0-2.8-0.5-5.4-1.4-7.8c-0.9-2.4-2.2-4.4-3.9-6
	c-1.7-1.7-3.7-3-6.1-3.9c-2.3-0.9-4.9-1.4-7.7-1.4H15v51.3h32.2c2.8,0,5.4-0.4,7.7-1.3c2.4-0.9,4.4-2.2,6.1-3.9c1.7-1.7,3-3.7,3.9-6
	c0.9-2.4,1.4-5,1.4-7.9V34.2z"/>
<path class="st0" d="M155.9,60.9c0,2-0.4,4.2-1.1,6.6c-0.7,2.3-1.9,4.5-3.5,6.5c-1.6,2-3.6,3.6-6.2,5c-2.5,1.3-5.7,2-9.3,2h-26.3
	c-2,0-4.2-0.4-6.6-1.1c-2.3-0.7-4.5-1.9-6.5-3.4c-2-1.6-3.6-3.7-5-6.2c-1.3-2.6-2-5.7-2-9.4c0-2,0.4-4.2,1.1-6.6
	c0.7-2.4,1.9-4.5,3.4-6.5c1.6-2,3.7-3.7,6.2-5.1c2.6-1.3,5.7-2,9.4-2h26.3v13.9h-26.3c-2,0-3.5,0.6-4.6,1.9
	c-1.1,1.2-1.6,2.7-1.6,4.5c0,1.9,0.6,3.4,1.9,4.5c1.3,1,2.8,1.6,4.5,1.6h26.2c2,0,3.5-0.6,4.6-1.8c1.1-1.2,1.6-2.7,1.6-4.5V40.4
	c0-1.9-0.6-3.4-1.8-4.5c-1.2-1.1-2.6-1.7-4.4-1.7h-32.1V20.3h32.1c2,0,4.2,0.4,6.5,1.1c2.4,0.7,4.5,1.9,6.5,3.5
	c2,1.6,3.7,3.6,5.1,6.2c1.3,2.5,2,5.7,2,9.3V60.9z"/>
<path class="st0" d="M240.8,20.3c-1.6,5.1-3.6,10.2-5.8,15.2c-2.2,5-4.8,9.7-7.6,14.3c-2.8,4.5-6,8.7-9.6,12.5
	c-3.5,3.8-7.4,7.1-11.7,9.9c-4.3,2.8-8.9,5-14,6.6c-5,1.6-10.5,2.4-16.3,2.4c-1,0-2-0.2-2.9-0.6c-0.9-0.4-1.7-0.9-2.4-1.5
	c-0.7-0.7-1.2-1.4-1.6-2.3c-0.4-0.9-0.6-1.9-0.6-2.9V20.3h14.6V66c3.6,0,7-0.8,10.2-2.3c3.3-1.5,6.4-3.6,9.3-6.1
	c2.9-2.5,5.6-5.4,8.1-8.6c2.5-3.2,4.7-6.5,6.7-9.9c1.9-3.4,3.6-6.7,4.9-10c1.4-3.3,2.4-6.2,3.1-8.8H240.8z"/>
<path class="st0" d="M313,86.8c0,2.5-0.3,4.8-1,6.7c-0.6,2-1.5,3.8-2.5,5.3c-1,1.5-2.3,2.8-3.6,3.9c-1.4,1.1-2.8,2-4.4,2.6
	c-1.5,0.7-3,1.2-4.5,1.5c-1.5,0.3-3,0.5-4.4,0.5h-26.3V92.7h26.3c1.9,0,3.4-0.5,4.4-1.5c1-1,1.5-2.5,1.5-4.4V20.3H313V86.8z
	 M292.5,81h-26.3c-2.1,0-4.3-0.4-6.7-1.1c-2.4-0.7-4.6-1.9-6.6-3.5c-2.1-1.6-3.8-3.8-5.1-6.3c-1.3-2.6-2-5.8-2-9.6V20.3h14.6v40.2
	c0,1.9,0.5,3.4,1.5,4.4c1,1,2.5,1.5,4.5,1.5h26.2V81z"/>
<path class="st0" d="M52.9,129c0-3.2-0.6-6.1-1.7-8.8c-1.1-2.7-2.6-5-4.6-7c-2-1.9-4.3-3.4-7-4.5c-2.7-1.1-5.6-1.6-8.8-1.6H5.3
	c-0.7,0-1.3,0.1-1.9,0.4c-0.6,0.2-1.1,0.6-1.5,1c-0.4,0.4-0.7,1-1,1.5c-0.2,0.6-0.4,1.2-0.4,1.9v42.9c0,0.7,0.1,1.3,0.4,1.9
	c0.2,0.6,0.6,1.1,1,1.5c0.4,0.4,1,0.8,1.5,1c0.6,0.2,1.2,0.4,1.9,0.4H31c3.1,0,6.1-0.6,8.8-1.6c2.7-1.1,5-2.6,7-4.6
	c2-1.9,3.5-4.2,4.6-7c1.1-2.7,1.7-5.6,1.7-8.8V129z M43.4,137.5c0,1.9-0.3,3.6-0.9,5.1c-0.6,1.5-1.4,2.8-2.5,3.9
	c-1.1,1.1-2.4,1.9-4,2.5c-1.5,0.6-3.2,0.9-5.1,0.9H10v-33.5h21c1.9,0,3.5,0.3,5.1,0.9c1.5,0.6,2.9,1.5,4,2.5
	c1.1,1.1,1.9,2.4,2.5,3.9c0.6,1.5,0.9,3.2,0.9,5.1V137.5z"/>
<path class="st0" d="M105.4,128.5H75.4v9.6h30.1V128.5z M109.7,107H75.4c-1.3,0-2.8,0.2-4.3,0.7c-1.6,0.5-3,1.2-4.4,2.3
	c-1.3,1.1-2.4,2.5-3.3,4.1c-0.9,1.7-1.3,3.8-1.3,6.3v34.3c0,0.7,0.1,1.3,0.4,1.9c0.2,0.6,0.6,1.1,1,1.5c0.4,0.4,1,0.8,1.5,1
	c0.6,0.2,1.2,0.4,1.9,0.4h42.9V150H71.6v-29.6c0-1.2,0.3-2.2,1-2.9c0.7-0.7,1.6-1,2.9-1h34.3V107z"/>
<path class="st0" d="M169.2,122.5c0-1.9-0.2-3.6-0.7-5.1c-0.5-1.5-1.1-2.8-1.9-4c-0.8-1.1-1.7-2.1-2.7-2.9c-1.1-0.8-2.1-1.5-3.3-2
	c-1.1-0.5-2.3-0.9-3.4-1.1c-1.1-0.2-2.2-0.4-3.3-0.4h-36.7v9.5h36.7c1.8,0,3.2,0.5,4.2,1.6c1,1.1,1.5,2.5,1.5,4.3
	c0,0.9-0.1,1.7-0.4,2.4c-0.3,0.7-0.7,1.4-1.2,1.9c-0.5,0.5-1.1,1-1.8,1.2c-0.7,0.3-1.5,0.4-2.4,0.4H132c-1.5,0-3.2,0.3-5,0.8
	c-1.8,0.6-3.4,1.5-5,2.7c-1.5,1.2-2.8,2.8-3.8,4.8c-1,2-1.5,4.4-1.5,7.3c0,2.9,0.5,5.3,1.5,7.2c1,2,2.3,3.6,3.8,4.8
	c1.5,1.2,3.2,2.1,5,2.7c1.8,0.6,3.4,0.8,5,0.8h32.4V150H132c-1.8,0-3.2-0.5-4.2-1.6c-1-1.1-1.5-2.6-1.5-4.4c0-1.8,0.5-3.3,1.5-4.4
	c1-1,2.4-1.6,4.2-1.6h21.9h0.1c1,0,2.1-0.2,3.3-0.4c1.1-0.2,2.3-0.6,3.4-1.2c1.1-0.5,2.2-1.2,3.3-2c1-0.8,1.9-1.8,2.7-2.9
	c0.8-1.1,1.4-2.5,1.9-4C169,126,169.2,124.3,169.2,122.5z"/>
<path class="st0" d="M186.7,107h-9.5v52.5h9.5V107z"/>
<path class="st0" d="M249.7,111.8c0-0.7-0.1-1.3-0.4-1.9s-0.6-1.1-1-1.5c-0.4-0.4-0.9-0.7-1.5-1c-0.6-0.2-1.2-0.4-1.9-0.4h-34.4
	c-0.9,0-1.8,0.1-2.9,0.3c-1,0.2-2,0.5-3,1c-1,0.4-1.9,1-2.8,1.7c-0.9,0.7-1.7,1.6-2.4,2.5c-0.7,1-1.2,2.1-1.6,3.4
	c-0.4,1.3-0.6,2.8-0.6,4.4v25.8c0,0.9,0.1,1.8,0.3,2.8c0.2,1,0.6,2,1,3c0.4,1,1,2,1.7,2.9c0.7,0.9,1.6,1.7,2.5,2.4
	c1,0.7,2.1,1.3,3.4,1.7c1.3,0.4,2.8,0.6,4.4,0.6h38.7V150h-38.7c-1.2,0-2.2-0.3-2.9-1c-0.7-0.7-1-1.6-1-2.9v-25.7
	c0-1.2,0.3-2.2,1-2.9c0.7-0.7,1.6-1,2.9-1h29.6v11.9h-25.3v9.6h30.1c0.7,0,1.3-0.1,1.9-0.4c0.6-0.2,1.1-0.6,1.5-1
	c0.4-0.4,0.8-1,1-1.5c0.2-0.6,0.4-1.2,0.4-1.8V111.8z"/>
<path class="st0" d="M312.1,111.1c0-0.7-0.1-1.3-0.4-1.9c-0.2-0.6-0.6-1.1-1-1.5c-0.4-0.4-0.9-0.7-1.5-1c-0.6-0.2-1.2-0.4-1.9-0.4
	c-0.6,0-1.2,0.1-1.8,0.3c-0.6,0.2-1.1,0.6-1.6,1.1L269.1,144v-37h-9.5v48.4c0,1,0.3,1.9,0.8,2.6c0.6,0.8,1.3,1.4,2.1,1.8
	c0.9,0.4,1.8,0.5,2.8,0.3c1-0.2,1.8-0.6,2.5-1.3l34.8-36.3v37h9.5V111.1z"/>
<path class="st0" d="M259.6,92.7h16v14.6h-16V92.7z"/>
<path class="st0" d="M0,92.7h250v8H0V92.7z"/>
</svg>
